<?xml version="1.0" encoding="UTF-8"?>
<svg width="207px" height="207px" viewBox="0 0 207 207" version="1.1" xmlns="http://www.w3.org/2000/svg" xmlns:xlink="http://www.w3.org/1999/xlink">
    <!-- Generator: Sketch 52.6 (67491) - http://www.bohemiancoding.com/sketch -->
    <title>Group 3</title>
    <desc>Created with Sketch.</desc>
    <defs>
        <circle id="path-1" cx="90" cy="89.5" r="89.5"></circle>
    </defs>
    <g id="Page-1" stroke="none" stroke-width="1" fill="none" fill-rule="evenodd">
        <g id="Group-3">
            <g id="Group-2-Copy">
                <g id="Group-Copy">
                    <g id="Group-Copy-34">
                        <circle id="Oval" fill="#C4C4C4" cx="103.5" cy="103.5" r="103.5"></circle>
                        <g id="cdc-_N7I1JyPYJw-unsplash-Copy" transform="translate(104.000000, 103.500000) scale(-1, 1) translate(-104.000000, -103.500000) translate(14.000000, 14.000000)">
                            <mask id="mask-2" fill="white">
                                <use xlink:href="#path-1"></use>
                            </mask>
                            <use id="Mask" fill="#F5F5F5" xlink:href="#path-1"></use>
                        </g>
                    </g>
                </g>
            </g>
            <path d="M100.55997,115.146948 C102.109493,111.700639 104.020911,108.567061 106.294272,105.746138 C108.830852,102.598596 111.726181,99.9894888 114.980347,97.9187374 C118.234513,95.8479861 121.113154,94.8126259 123.616359,94.8126259 C126.119563,94.8126259 128.555979,95.1605069 130.925679,95.8562794 L137.584169,72.2498321 C138.518698,68.4396496 139.436526,66.2198375 140.33768,65.5903291 C141.572594,64.6957645 142.832521,64.2070745 144.117499,64.1242445 C145.402478,64.0414144 146.779219,64 148.247766,64 L150,64 C149.866496,65.1264887 149.282424,67.4291297 148.247766,70.9079919 C146.17845,77.0374159 143.316496,86.7035382 139.661818,99.9066488 C136.00714,113.109759 134.179828,120.986779 134.179828,123.537945 C134.179828,124.76383 134.296642,125.592118 134.530275,126.022834 C134.763907,126.45355 135.206133,126.668905 135.856966,126.668905 C136.5078,126.668905 137.85951,125.708091 139.912137,123.786434 C141.964765,121.864777 144.976909,118.833242 148.948659,114.691739 L148.948659,120.257891 C148.481395,120.72174 147.621974,121.583159 146.370372,122.842176 C145.11877,124.101193 144.192598,125.028875 143.591829,125.625252 L140.938446,128.209537 C139.80366,129.369157 138.894176,130.247143 138.209967,130.843519 C137.525758,131.439896 136.683025,132.185355 135.681743,133.079919 C134.680461,133.974484 133.846072,134.661963 133.178551,135.142377 C132.51103,135.622792 131.793456,136.111482 131.025806,136.608462 C129.590636,137.536159 128.389116,138 127.42121,138 C124.684373,138 123.315976,135.796754 123.315976,131.390195 C123.315976,129.269745 123.599668,127.049933 124.167061,124.730692 C120.562447,128.905326 116.941199,132.160499 113.303209,134.496306 C109.665218,136.832114 106.936767,138 105.117771,138 C103.298776,138 101.905347,137.660402 100.937441,136.981195 C99.9695355,136.301989 99.2519611,135.399155 98.7846963,134.272666 C97.9836709,132.218481 97.5831642,129.700485 97.5831642,126.718603 C97.5831642,125.585193 97.7013018,124.383578 97.9375784,123.113755 C97.5724776,123.453827 97.1811025,123.818863 96.7634525,124.208865 C94.7942651,126.047692 93.2923651,127.439216 92.2577073,128.383479 C91.2230495,129.327741 89.8296201,130.512193 88.077377,131.93687 C86.325134,133.361547 84.8649534,134.438322 83.6967914,135.167226 C80.6595702,137.055752 78.1730913,138 76.2372799,138 C73.366939,138 71.9317901,135.829885 71.9317901,131.48959 C71.9317901,129.667329 72.0986679,128.126713 72.4324284,126.867696 C64.7225592,134.289269 58.1976379,138 52.8574688,138 C48.9524701,138 47,135.216952 47,129.650772 C47,127.762247 47.2336289,125.923447 47.7008937,124.134318 C49.7034571,116.613349 52.4736283,107.800364 56.0114904,97.6950974 C56.1449946,96.8667968 58.8484147,96.4526528 64.1218317,96.4526528 L65.874066,96.4526528 C65.874066,96.5189168 65.1898671,98.6890317 63.8214487,102.963062 C59.7161937,115.785155 57.663597,123.38884 57.663597,125.774345 C57.663597,128.159851 58.7816781,129.352586 61.0178739,129.352586 C62.9203092,129.352586 65.2816298,128.540863 68.1019067,126.917394 C70.9221835,125.293925 72.5659297,124.001796 73.0331945,123.040967 L78.4901525,102.366689 C79.2244258,99.5504672 80.2256925,97.827628 81.4939827,97.1981195 C82.4618883,96.7011392 84.0138517,96.4526528 86.1499194,96.4526528 L89.5542602,96.4526528 C85.3155009,111.660251 82.8123342,120.953643 82.0446849,124.333109 C81.7776764,126.851143 81.6441742,128.358627 81.6441742,128.855608 C81.6441742,129.352588 81.7192692,129.692186 81.8694614,129.874412 C82.0196537,130.056638 82.3617532,130.14775 82.8957701,130.14775 C84.5781138,130.14775 90.4661225,125.147532 100.55997,115.146948 Z M130,100.911765 C129.865443,100.454246 129.268354,100.021244 128.208716,99.6127451 C127.149077,99.2042463 126.165142,99 125.256881,99 C122.3639,99 119.555059,100.290837 116.830275,102.872549 C114.105491,105.454261 111.952607,108.583315 110.37156,112.259804 C108.790512,115.936293 108,119.44116 108,122.77451 C108,126.924857 109.379191,129 112.137615,129 C114.290531,129 116.981635,127.815371 120.211009,125.446078 C123.440383,123.076786 125.22324,121.222229 125.559633,119.882353 L130,100.911765 Z M161,130.525424 C161,132.016957 160.098676,133.635584 158.296,135.381356 C156.493324,137.127127 154.656009,138 152.784,138 C149.594651,138 148,136.677979 148,134.033898 C148,132.169482 148.71066,130.364416 150.132,128.618644 C151.55334,126.872873 153.243324,126 155.202,126 C157.160676,126 158.616662,126.372878 159.57,127.118644 C160.523338,127.864411 161,128.999992 161,130.525424 Z" id="ud." fill="#BABABA"></path>
        </g>
    </g>
</svg>